<?xml version="1.0" encoding="utf-8"?>
<!-- Generator: Adobe Illustrator 23.0.1, SVG Export Plug-In . SVG Version: 6.00 Build 0)  -->
<svg version="1.1" id="Capa_1" xmlns="http://www.w3.org/2000/svg" xmlns:xlink="http://www.w3.org/1999/xlink" x="0px" y="0px"
	 viewBox="0 0 239.1 108" style="enable-background:new 0 0 239.1 108;" xml:space="preserve">
<style type="text/css">
	.st0{display:none;}
	.st1{fill:url(#XMLID_2_);}
	.st2{fill:url(#XMLID_3_);}
	.st3{fill:url(#XMLID_4_);}
	.st4{fill:url(#XMLID_5_);}
	.st5{fill:url(#XMLID_6_);}
	.st6{fill:#FFFFFF;}
	.st7{fill:url(#SVGID_1_);}
	.st8{fill:url(#SVGID_2_);}
	.st9{fill:url(#SVGID_3_);}
	.st10{fill:url(#SVGID_4_);}
	.st11{fill:url(#SVGID_5_);}
	.st12{fill:url(#SVGID_6_);}
	.st13{fill:url(#SVGID_7_);}
	.st14{fill:url(#SVGID_8_);}
	.st15{fill:url(#SVGID_9_);}
	.st16{fill:url(#SVGID_10_);}
</style>
<rect x="-25.8" class="st0" width="287.8" height="108"/>
<linearGradient id="XMLID_2_" gradientUnits="userSpaceOnUse" x1="85.2507" y1="-1521.6041" x2="239.2382" y2="-1523.7988" gradientTransform="matrix(1 0 0 -1 0 -1478)">
	<stop  offset="0" style="stop-color:#F9DF7B"/>
	<stop  offset="0.2038" style="stop-color:#B57E10"/>
	<stop  offset="0.2643" style="stop-color:#B78114"/>
	<stop  offset="0.3227" style="stop-color:#BF8C1F"/>
	<stop  offset="0.3803" style="stop-color:#CB9E33"/>
	<stop  offset="0.4373" style="stop-color:#DDB64E"/>
	<stop  offset="0.4935" style="stop-color:#F3D671"/>
	<stop  offset="0.5077" style="stop-color:#F9DF7B"/>
	<stop  offset="0.5189" style="stop-color:#FFF3A6"/>
	<stop  offset="0.5934" style="stop-color:#F9DF7B"/>
	<stop  offset="0.8428" style="stop-color:#B57E10"/>
	<stop  offset="0.9493" style="stop-color:#E5C35C"/>
	<stop  offset="1" style="stop-color:#F9DF7B"/>
</linearGradient>
<path id="XMLID_1181_" class="st1" d="M103.8,40.1l11.3,14.1c1.6,2,3,3.3,4.1,4c0.8,0.5,1.7,0.8,2.6,0.8v0.9h-16.6V59
	c1.1-0.1,1.7-0.3,2-0.5s0.5-0.5,0.5-0.9c0-0.7-0.7-1.9-2.2-3.7l-7.3-9.2l-1.2,1v8.7c0,1.7,0.1,2.7,0.3,3.1c0.2,0.4,0.6,0.8,1.1,1.1
	S99.8,59,101,59v0.9H84.8V59h1.1c0.9,0,1.7-0.2,2.2-0.5c0.4-0.2,0.7-0.6,0.9-1.1c0.2-0.4,0.3-1.4,0.3-3V33.3c0-1.6-0.1-2.7-0.3-3.1
	c-0.2-0.4-0.5-0.8-1.1-1.1c-0.5-0.3-1.2-0.5-2.1-0.5h-1.1v-0.9h15.9v0.9c-1.1,0-1.9,0.2-2.5,0.5c-0.4,0.2-0.7,0.6-1,1.1
	c-0.2,0.4-0.3,1.4-0.3,3v10l11.9-9.6c1.6-1.3,2.5-2.4,2.5-3.2c0-0.6-0.3-1.1-1-1.4c-0.4-0.2-1.2-0.3-2.6-0.3v-0.9h12.6v0.9
	c-1.1,0.1-2,0.3-2.6,0.6s-2.1,1.4-4.4,3.3L103.8,40.1z"/>
<linearGradient id="XMLID_3_" gradientUnits="userSpaceOnUse" x1="85.2571" y1="-1521.1538" x2="239.2446" y2="-1523.3483" gradientTransform="matrix(1 0 0 -1 0 -1478)">
	<stop  offset="0" style="stop-color:#F9DF7B"/>
	<stop  offset="0.2038" style="stop-color:#B57E10"/>
	<stop  offset="0.2643" style="stop-color:#B78114"/>
	<stop  offset="0.3227" style="stop-color:#BF8C1F"/>
	<stop  offset="0.3803" style="stop-color:#CB9E33"/>
	<stop  offset="0.4373" style="stop-color:#DDB64E"/>
	<stop  offset="0.4935" style="stop-color:#F3D671"/>
	<stop  offset="0.5077" style="stop-color:#F9DF7B"/>
	<stop  offset="0.5189" style="stop-color:#FFF3A6"/>
	<stop  offset="0.5934" style="stop-color:#F9DF7B"/>
	<stop  offset="0.8428" style="stop-color:#B57E10"/>
	<stop  offset="0.9493" style="stop-color:#E5C35C"/>
	<stop  offset="1" style="stop-color:#F9DF7B"/>
</linearGradient>
<path id="XMLID_1179_" class="st2" d="M139,59v0.9h-16.7V59h1.1c0.9,0,1.7-0.2,2.2-0.5c0.4-0.2,0.7-0.6,0.9-1.1
	c0.2-0.4,0.3-1.4,0.3-3V33.3c0-1.6-0.1-2.7-0.3-3.1s-0.5-0.8-1.1-1.1c-0.5-0.3-1.2-0.5-2.1-0.5h-1.1v-0.9h16.7v0.9h-1.1
	c-0.9,0-1.7,0.2-2.2,0.5c-0.4,0.2-0.7,0.6-1,1.1c-0.2,0.4-0.3,1.4-0.3,3v21c0,1.6,0.1,2.7,0.3,3.1s0.5,0.8,1.1,1.1s1.2,0.5,2.1,0.5
	L139,59L139,59z"/>
<linearGradient id="XMLID_4_" gradientUnits="userSpaceOnUse" x1="85.2597" y1="-1520.9709" x2="239.2471" y2="-1523.1655" gradientTransform="matrix(1 0 0 -1 0 -1478)">
	<stop  offset="0" style="stop-color:#F9DF7B"/>
	<stop  offset="0.2038" style="stop-color:#B57E10"/>
	<stop  offset="0.2643" style="stop-color:#B78114"/>
	<stop  offset="0.3227" style="stop-color:#BF8C1F"/>
	<stop  offset="0.3803" style="stop-color:#CB9E33"/>
	<stop  offset="0.4373" style="stop-color:#DDB64E"/>
	<stop  offset="0.4935" style="stop-color:#F3D671"/>
	<stop  offset="0.5077" style="stop-color:#F9DF7B"/>
	<stop  offset="0.5189" style="stop-color:#FFF3A6"/>
	<stop  offset="0.5934" style="stop-color:#F9DF7B"/>
	<stop  offset="0.8428" style="stop-color:#B57E10"/>
	<stop  offset="0.9493" style="stop-color:#E5C35C"/>
	<stop  offset="1" style="stop-color:#F9DF7B"/>
</linearGradient>
<path id="XMLID_1177_" class="st3" d="M152.2,27.9L168,47.8V33.9c0-1.9-0.3-3.2-0.8-3.9c-0.8-0.9-2-1.3-3.8-1.3v-0.9H174v0.9
	c-1.4,0.2-2.3,0.4-2.7,0.7c-0.5,0.3-0.8,0.7-1.1,1.3s-0.4,1.7-0.4,3.2v26.7H169l-21.6-26.7v20.4c0,1.8,0.4,3.1,1.3,3.7
	c0.8,0.7,1.8,1,2.9,1h0.8v0.9H141V59c1.8,0,3-0.4,3.7-1.1s1-1.9,1-3.6V31.7l-0.7-0.8c-0.7-0.8-1.3-1.4-1.8-1.7s-1.3-0.4-2.2-0.5
	v-0.9C140.8,27.9,152.2,27.9,152.2,27.9z"/>
<linearGradient id="XMLID_5_" gradientUnits="userSpaceOnUse" x1="85.2701" y1="-1520.2416" x2="239.2576" y2="-1522.4363" gradientTransform="matrix(1 0 0 -1 0 -1478)">
	<stop  offset="0" style="stop-color:#F9DF7B"/>
	<stop  offset="0.2038" style="stop-color:#B57E10"/>
	<stop  offset="0.2643" style="stop-color:#B78114"/>
	<stop  offset="0.3227" style="stop-color:#BF8C1F"/>
	<stop  offset="0.3803" style="stop-color:#CB9E33"/>
	<stop  offset="0.4373" style="stop-color:#DDB64E"/>
	<stop  offset="0.4935" style="stop-color:#F3D671"/>
	<stop  offset="0.5077" style="stop-color:#F9DF7B"/>
	<stop  offset="0.5189" style="stop-color:#FFF3A6"/>
	<stop  offset="0.5934" style="stop-color:#F9DF7B"/>
	<stop  offset="0.8428" style="stop-color:#B57E10"/>
	<stop  offset="0.9493" style="stop-color:#E5C35C"/>
	<stop  offset="1" style="stop-color:#F9DF7B"/>
</linearGradient>
<path id="XMLID_1175_" class="st4" d="M208.4,27.1v11.3h-0.9c-1.1-3.1-2.6-5.4-4.8-7s-4.4-2.4-6.9-2.4c-2.4,0-4.4,0.7-6,2
	c-1.6,1.3-2.7,3.2-3.4,5.6s-1,4.9-1,7.4c0,3.1,0.4,5.8,1.1,8.1c0.7,2.3,1.9,4,3.5,5.1s3.5,1.6,5.8,1.6c0.8,0,1.6-0.1,2.4-0.3
	s1.6-0.4,2.5-0.7v-6.7c0-1.3-0.1-2.1-0.3-2.4s-0.5-0.7-1.1-1c-0.5-0.3-1.2-0.4-2-0.4h-0.8v-0.9h15.7v0.9c-1.2,0.1-2,0.2-2.5,0.5
	c-0.5,0.2-0.8,0.7-1.1,1.2c-0.1,0.3-0.2,1-0.2,2.2v6.7c-2.1,0.9-4.2,1.6-6.4,2.1s-4.5,0.7-6.9,0.7c-3,0-5.6-0.4-7.6-1.2
	s-3.8-1.9-5.3-3.3s-2.7-2.9-3.6-4.6c-1.1-2.2-1.6-4.6-1.6-7.3c0-4.8,1.7-8.9,5.1-12.2c3.4-3.3,7.6-5,12.8-5c1.6,0,3,0.1,4.3,0.4
	c0.7,0.1,1.8,0.5,3.4,1.1s2.5,0.9,2.8,0.9c0.4,0,0.9-0.2,1.2-0.5c0.4-0.3,0.7-0.9,1-1.8L208.4,27.1L208.4,27.1z"/>
<linearGradient id="XMLID_6_" gradientUnits="userSpaceOnUse" x1="85.2756" y1="-1519.8544" x2="239.2631" y2="-1522.049" gradientTransform="matrix(1 0 0 -1 0 -1478)">
	<stop  offset="0" style="stop-color:#F9DF7B"/>
	<stop  offset="0.2038" style="stop-color:#B57E10"/>
	<stop  offset="0.2643" style="stop-color:#B78114"/>
	<stop  offset="0.3227" style="stop-color:#BF8C1F"/>
	<stop  offset="0.3803" style="stop-color:#CB9E33"/>
	<stop  offset="0.4373" style="stop-color:#DDB64E"/>
	<stop  offset="0.4935" style="stop-color:#F3D671"/>
	<stop  offset="0.5077" style="stop-color:#F9DF7B"/>
	<stop  offset="0.5189" style="stop-color:#FFF3A6"/>
	<stop  offset="0.5934" style="stop-color:#F9DF7B"/>
	<stop  offset="0.8428" style="stop-color:#B57E10"/>
	<stop  offset="0.9493" style="stop-color:#E5C35C"/>
	<stop  offset="1" style="stop-color:#F9DF7B"/>
</linearGradient>
<path id="XMLID_1173_" class="st5" d="M235.4,27.1l0.3,10.7h-1c-0.5-2.7-1.6-4.8-3.4-6.5c-1.8-1.6-3.7-2.4-5.8-2.4
	c-1.6,0-2.9,0.4-3.8,1.3c-0.9,0.9-1.4,1.8-1.4,3c0,0.7,0.2,1.3,0.5,1.9c0.5,0.7,1.2,1.5,2.2,2.2c0.7,0.5,2.4,1.4,5.1,2.8
	c3.8,1.8,6.3,3.6,7.6,5.2s1.9,3.5,1.9,5.6c0,2.7-1,5-3.1,6.9s-4.7,2.9-7.9,2.9c-1,0-2-0.1-2.9-0.3s-2-0.6-3.4-1.2
	c-0.8-0.3-1.4-0.5-1.9-0.5c-0.4,0-0.8,0.2-1.3,0.5s-0.8,0.8-1.1,1.4h-0.8V48.5h0.9c0.7,3.4,2,6,4,7.8s4.1,2.7,6.4,2.7
	c1.8,0,3.2-0.5,4.2-1.4c1-1,1.6-2.1,1.6-3.3c0-0.8-0.2-1.5-0.6-2.2s-1-1.4-1.8-2s-2.3-1.5-4.3-2.5c-2.9-1.4-5-2.7-6.3-3.7
	s-2.3-2.1-2.9-3.4c-0.7-1.2-1-2.6-1-4.1c0-2.5,0.9-4.7,2.8-6.5c1.9-1.8,4.2-2.7,7.1-2.7c1,0,2.1,0.1,3,0.4c0.7,0.2,1.6,0.5,2.7,1
	s1.8,0.8,2.2,0.8s0.7-0.1,1-0.4s0.5-0.9,0.7-1.8L235.4,27.1L235.4,27.1z"/>
<path id="XMLID_1170_" class="st6" d="M94.2,69.3c2.5,0,4.6,0.9,6.4,2.8s2.7,4.2,2.7,7c0,2.9-0.9,5.3-2.7,7.2
	c-1.8,1.9-4,2.9-6.6,2.9s-4.8-0.9-6.6-2.8s-2.7-4.3-2.7-7.2c0-3,1-5.5,3.1-7.4C89.6,70.2,91.7,69.3,94.2,69.3z M94,70.4
	c-1.7,0-3.1,0.6-4.1,1.9c-1.3,1.6-1.9,3.9-1.9,6.9c0,3.1,0.7,5.5,2,7.2c1,1.3,2.4,1.9,4.1,1.9c1.8,0,3.3-0.7,4.4-2.1
	c1.2-1.4,1.8-3.6,1.8-6.6c0-3.3-0.6-5.7-1.9-7.3C97.2,71,95.8,70.4,94,70.4z"/>
<path id="XMLID_1168_" class="st6" d="M110.4,70.8v7.5h3.5c0.8,0,1.4-0.2,1.8-0.5s0.6-1.1,0.7-2.1h0.5v6.5h-0.5
	c0-0.7-0.1-1.3-0.3-1.6s-0.4-0.6-0.8-0.8c-0.3-0.2-0.8-0.3-1.4-0.3h-3.5v6c0,1,0.1,1.6,0.2,1.9c0.1,0.2,0.3,0.4,0.6,0.6
	c0.4,0.2,0.8,0.3,1.3,0.3h0.7v0.5H105v-0.5h0.7c0.8,0,1.4-0.2,1.7-0.7c0.2-0.3,0.3-1,0.3-2.2V73.1c0-1-0.1-1.6-0.2-1.9
	c-0.1-0.2-0.3-0.4-0.6-0.6c-0.4-0.2-0.8-0.3-1.3-0.3h-0.7v-0.5h14.3l0.2,4.2h-0.5c-0.2-0.9-0.5-1.6-0.9-2c-0.3-0.4-0.7-0.7-1.2-0.9
	c-0.5-0.2-1.2-0.3-2.2-0.3L110.4,70.8L110.4,70.8z"/>
<path id="XMLID_1164_" class="st6" d="M141,79.1c1.3,0.3,2.3,0.7,3,1.3c0.9,0.9,1.4,1.9,1.4,3.2c0,0.9-0.3,1.8-0.9,2.7
	c-0.6,0.9-1.4,1.5-2.5,1.9s-2.6,0.6-4.8,0.6h-9v-0.5h0.7c0.8,0,1.4-0.3,1.7-0.8c0.2-0.3,0.3-1,0.3-2.1V73.1c0-1.2-0.1-1.9-0.4-2.2
	c-0.4-0.4-0.9-0.6-1.6-0.6h-0.7v-0.5h8.2c1.5,0,2.8,0.1,3.7,0.3c1.4,0.3,2.5,0.9,3.2,1.8s1.1,1.8,1.1,3c0,1-0.3,1.8-0.9,2.6
	S142.2,78.7,141,79.1z M133.7,78.3c0.4,0.1,0.7,0.1,1.2,0.2c0.4,0,0.9,0.1,1.5,0.1c1.4,0,2.4-0.2,3.1-0.4c0.7-0.3,1.2-0.8,1.6-1.4
	c0.4-0.6,0.6-1.3,0.6-2c0-1.1-0.5-2.1-1.4-2.9s-2.2-1.2-4-1.2c-0.9,0-1.8,0.1-2.5,0.3L133.7,78.3L133.7,78.3z M133.7,87.5
	c1.1,0.3,2.2,0.4,3.2,0.4c1.7,0,3-0.4,3.9-1.2c0.9-0.8,1.3-1.7,1.3-2.8c0-0.7-0.2-1.4-0.6-2.1c-0.4-0.7-1.1-1.2-2-1.6
	s-2-0.6-3.4-0.6c-0.6,0-1.1,0-1.5,0s-0.8,0.1-1,0.1L133.7,87.5L133.7,87.5z"/>
<path id="XMLID_1162_" class="st6" d="M155.8,88.3v0.5h-8.2v-0.5h0.7c0.8,0,1.4-0.2,1.7-0.7c0.2-0.3,0.3-1,0.3-2.2V73.1
	c0-1-0.1-1.6-0.2-1.9c-0.1-0.2-0.3-0.4-0.6-0.6c-0.4-0.2-0.8-0.3-1.3-0.3h-0.7v-0.5h8.2v0.5H155c-0.8,0-1.4,0.2-1.7,0.7
	c-0.2,0.3-0.4,1-0.4,2.2v12.3c0,1,0.1,1.6,0.2,1.9c0.1,0.2,0.3,0.4,0.6,0.6c0.4,0.2,0.8,0.3,1.3,0.3C155,88.3,155.8,88.3,155.8,88.3
	z"/>
<path id="XMLID_1160_" class="st6" d="M156.1,69.8h5.2L173,84.1v-11c0-1.2-0.1-1.9-0.4-2.2c-0.4-0.4-0.9-0.6-1.6-0.6h-0.7v-0.5h6.6
	v0.5h-0.7c-0.8,0-1.4,0.2-1.7,0.7c-0.2,0.3-0.3,1-0.3,2.1v16.1h-0.5l-12.6-15.4v11.8c0,1.2,0.1,1.9,0.4,2.2c0.4,0.4,0.9,0.6,1.6,0.6
	h0.7v0.5h-6.6v-0.5h0.7c0.8,0,1.4-0.2,1.7-0.7c0.2-0.3,0.3-1,0.3-2.1V72.3c-0.6-0.7-1-1.1-1.3-1.3s-0.7-0.4-1.3-0.6
	c-0.3-0.1-0.7-0.1-1.2-0.1L156.1,69.8L156.1,69.8z"/>
<path id="XMLID_1157_" class="st6" d="M190.5,82.5h-7.4l-1.3,3c-0.3,0.7-0.5,1.3-0.5,1.7c0,0.3,0.1,0.6,0.4,0.8
	c0.3,0.2,0.9,0.4,1.8,0.4v0.5h-6v-0.5c0.8-0.1,1.3-0.3,1.6-0.6c0.5-0.4,1-1.4,1.6-2.7l6.7-15.7h0.5l6.6,15.9c0.5,1.3,1,2.1,1.5,2.5
	c0.4,0.4,1,0.6,1.8,0.6v0.5h-7.5v-0.5c0.8,0,1.3-0.2,1.5-0.4c0.3-0.2,0.4-0.5,0.4-0.8c0-0.4-0.2-1.1-0.6-2L190.5,82.5z M190.1,81.4
	l-3.2-7.7l-3.3,7.7H190.1z"/>
<path id="XMLID_1154_" class="st6" d="M217.6,88.8h-5.1l-6.5-8.9c-0.5,0-0.9,0-1.2,0c-0.1,0-0.3,0-0.4,0c-0.1,0-0.3,0-0.4,0v5.5
	c0,1.2,0.1,1.9,0.4,2.2c0.4,0.4,0.9,0.6,1.6,0.6h0.8v0.5h-8.2v-0.5h0.7c0.8,0,1.4-0.3,1.7-0.8c0.2-0.3,0.3-1,0.3-2.1V73.1
	c0-1.2-0.1-1.9-0.4-2.2c-0.4-0.4-0.9-0.6-1.6-0.6h-0.7v-0.5h6.9c2,0,3.5,0.2,4.5,0.4s1.8,0.8,2.4,1.6s1,1.7,1,2.8
	c0,1.2-0.4,2.2-1.1,3.1c-0.8,0.9-1.9,1.5-3.6,1.8l3.9,5.5c0.9,1.3,1.7,2.1,2.3,2.5s1.5,0.7,2.5,0.8L217.6,88.8L217.6,88.8z
	 M204.1,79c0.2,0,0.3,0,0.5,0c0.1,0,0.2,0,0.3,0c1.8,0,3.2-0.4,4.1-1.2s1.4-1.8,1.4-3s-0.4-2.2-1.1-2.9s-1.7-1.1-3-1.1
	c-0.5,0-1.3,0.1-2.2,0.3V79z"/>
<path id="XMLID_1152_" class="st6" d="M229.5,69.8h6.7v0.5h-0.4c-0.2,0-0.6,0.1-1.1,0.3c-0.5,0.2-0.9,0.5-1.3,0.9s-0.9,1.1-1.4,2
	l-4.6,7.2v4.8c0,1.2,0.1,1.9,0.4,2.2c0.4,0.4,0.9,0.6,1.7,0.6h0.6v0.5H222v-0.5h0.7c0.8,0,1.4-0.2,1.7-0.7c0.2-0.3,0.3-1,0.3-2.1V81
	l-5.2-8c-0.6-0.9-1-1.5-1.3-1.8c-0.2-0.2-0.7-0.5-1.4-0.8c-0.2-0.1-0.5-0.1-0.8-0.1v-0.5h8.2v0.5h-0.4c-0.4,0-0.9,0.1-1.2,0.3
	s-0.6,0.5-0.6,0.9c0,0.3,0.3,0.9,0.9,1.8l4,6.2l3.7-5.9c0.6-0.9,0.8-1.5,0.8-2c0-0.3-0.1-0.5-0.2-0.7s-0.3-0.4-0.6-0.5
	s-0.6-0.2-1.1-0.2L229.5,69.8L229.5,69.8z"/>
<g>
	
		<linearGradient id="SVGID_1_" gradientUnits="userSpaceOnUse" x1="16.2286" y1="-1555.5636" x2="57.3421" y2="-1557.7639" gradientTransform="matrix(1 0 0 -1 0 -1478)">
		<stop  offset="0" style="stop-color:#F9DF7B"/>
		<stop  offset="0.2038" style="stop-color:#B57E10"/>
		<stop  offset="0.2643" style="stop-color:#B78114"/>
		<stop  offset="0.3227" style="stop-color:#BF8C1F"/>
		<stop  offset="0.3803" style="stop-color:#CB9E33"/>
		<stop  offset="0.4373" style="stop-color:#DDB64E"/>
		<stop  offset="0.4935" style="stop-color:#F3D671"/>
		<stop  offset="0.5077" style="stop-color:#F9DF7B"/>
		<stop  offset="0.5189" style="stop-color:#FFF3A6"/>
		<stop  offset="0.5934" style="stop-color:#F9DF7B"/>
		<stop  offset="0.8428" style="stop-color:#B57E10"/>
		<stop  offset="0.9493" style="stop-color:#E5C35C"/>
		<stop  offset="1" style="stop-color:#F9DF7B"/>
	</linearGradient>
	<path class="st7" d="M51.7,76.7c-1.1-0.6-2.1-1.4-3.3-1.8c-2.9-1-5.5-2.3-8-4.2c-0.6-0.5-2.1-0.6-2.7-0.2c-2.8,2.2-6,3.5-9.2,4.8
		c-0.9,0.3-1.6,1.1-2.4,1.7c0.1,0.1,0.1,0.2,0.2,0.3c0.7-0.3,1.4-0.7,2.2-1.1c-1.3,1.6-1.1,3.2,0.6,4.9c0.3-1,0.6-1.9,0.9-2.9
		c0.3,3.1,1,4.6,3,6c0-1,0-2,0-3c0.9,3.2,4,4.1,5.9,6.1c2.2-2,5.4-3,5.7-6.6c0.2,0.1,0.3,0.1,0.5,0.2C45,82,45,83.1,44.9,84.2
		c2.1-1.5,2.8-2.9,3.4-5.9c0.2,0.9,0.3,1.8,0.5,3.2c0.5-1.2,1.1-2,1.2-2.9c0.1-0.8-0.4-1.6-0.6-2.4c0.6,0.3,1.2,0.6,1.8,0.9
		C51.5,77,51.5,76.8,51.7,76.7z"/>
	
		<linearGradient id="SVGID_2_" gradientUnits="userSpaceOnUse" x1="49.6873" y1="-1560.9337" x2="64.1261" y2="-1561.7062" gradientTransform="matrix(1 0 0 -1 0 -1478)">
		<stop  offset="0" style="stop-color:#F9DF7B"/>
		<stop  offset="0.2038" style="stop-color:#B57E10"/>
		<stop  offset="0.2643" style="stop-color:#B78114"/>
		<stop  offset="0.3227" style="stop-color:#BF8C1F"/>
		<stop  offset="0.3803" style="stop-color:#CB9E33"/>
		<stop  offset="0.4373" style="stop-color:#DDB64E"/>
		<stop  offset="0.4935" style="stop-color:#F3D671"/>
		<stop  offset="0.5077" style="stop-color:#F9DF7B"/>
		<stop  offset="0.5189" style="stop-color:#FFF3A6"/>
		<stop  offset="0.5934" style="stop-color:#F9DF7B"/>
		<stop  offset="0.8428" style="stop-color:#B57E10"/>
		<stop  offset="0.9493" style="stop-color:#E5C35C"/>
		<stop  offset="1" style="stop-color:#F9DF7B"/>
	</linearGradient>
	<path class="st8" d="M58.5,76.9c-0.1,3.1-0.1,6.3-0.5,9.4c-0.6,4.6-2.8,8.6-5.6,12.3c2.8-1.3,5.6-2.7,7.9-4.8
		c0.3-0.2,0.4-0.6,0.5-0.9c0.4-2.3,1-4.6,1.2-6.9c0.7-6.3-2-12.1-3.2-18.1C58.5,70.9,58.6,73.9,58.5,76.9z"/>
	
		<linearGradient id="SVGID_3_" gradientUnits="userSpaceOnUse" x1="11.4515" y1="-1560.9854" x2="28.7617" y2="-1561.9119" gradientTransform="matrix(1 0 0 -1 0 -1478)">
		<stop  offset="0" style="stop-color:#F9DF7B"/>
		<stop  offset="0.2038" style="stop-color:#B57E10"/>
		<stop  offset="0.2643" style="stop-color:#B78114"/>
		<stop  offset="0.3227" style="stop-color:#BF8C1F"/>
		<stop  offset="0.3803" style="stop-color:#CB9E33"/>
		<stop  offset="0.4373" style="stop-color:#DDB64E"/>
		<stop  offset="0.4935" style="stop-color:#F3D671"/>
		<stop  offset="0.5077" style="stop-color:#F9DF7B"/>
		<stop  offset="0.5189" style="stop-color:#FFF3A6"/>
		<stop  offset="0.5934" style="stop-color:#F9DF7B"/>
		<stop  offset="0.8428" style="stop-color:#B57E10"/>
		<stop  offset="0.9493" style="stop-color:#E5C35C"/>
		<stop  offset="1" style="stop-color:#F9DF7B"/>
	</linearGradient>
	<path class="st9" d="M19.1,76.9c0.1-1.8,0.1-3.6,0.1-5.4c0-1.1-0.2-2.2-0.3-3.3c-0.9,2.9-1.6,5.7-2.3,8.5
		c-1.2,4.6-1.4,9.2-0.3,13.9c0.3,1.2,0.6,2.7,1.5,3.4c2.3,1.8,4.9,3.3,7.3,4.9c0.1-0.1,0.2-0.3,0.3-0.4
		C20.1,92.3,18.7,84.9,19.1,76.9z"/>
	
		<linearGradient id="SVGID_4_" gradientUnits="userSpaceOnUse" x1="30.2574" y1="-1566.7208" x2="58.4376" y2="-1568.229" gradientTransform="matrix(1 0 0 -1 0 -1478)">
		<stop  offset="0" style="stop-color:#F9DF7B"/>
		<stop  offset="0.2038" style="stop-color:#B57E10"/>
		<stop  offset="0.2643" style="stop-color:#B78114"/>
		<stop  offset="0.3227" style="stop-color:#BF8C1F"/>
		<stop  offset="0.3803" style="stop-color:#CB9E33"/>
		<stop  offset="0.4373" style="stop-color:#DDB64E"/>
		<stop  offset="0.4935" style="stop-color:#F3D671"/>
		<stop  offset="0.5077" style="stop-color:#F9DF7B"/>
		<stop  offset="0.5189" style="stop-color:#FFF3A6"/>
		<stop  offset="0.5934" style="stop-color:#F9DF7B"/>
		<stop  offset="0.8428" style="stop-color:#B57E10"/>
		<stop  offset="0.9493" style="stop-color:#E5C35C"/>
		<stop  offset="1" style="stop-color:#F9DF7B"/>
	</linearGradient>
	<path class="st10" d="M36.4,101.7c2.8-0.1,5.6-0.3,8.3-0.7c0.8-0.1,1.7-0.8,2.3-1.4c5.6-6.2,7.7-13.8,8.1-22.2
		C51.8,87.9,46.2,96.4,36.4,101.7z"/>
	
		<linearGradient id="SVGID_5_" gradientUnits="userSpaceOnUse" x1="4.124" y1="-1552.7867" x2="18.7889" y2="-1553.5715" gradientTransform="matrix(1 0 0 -1 0 -1478)">
		<stop  offset="0" style="stop-color:#F9DF7B"/>
		<stop  offset="0.2038" style="stop-color:#B57E10"/>
		<stop  offset="0.2643" style="stop-color:#B78114"/>
		<stop  offset="0.3227" style="stop-color:#BF8C1F"/>
		<stop  offset="0.3803" style="stop-color:#CB9E33"/>
		<stop  offset="0.4373" style="stop-color:#DDB64E"/>
		<stop  offset="0.4935" style="stop-color:#F3D671"/>
		<stop  offset="0.5077" style="stop-color:#F9DF7B"/>
		<stop  offset="0.5189" style="stop-color:#FFF3A6"/>
		<stop  offset="0.5934" style="stop-color:#F9DF7B"/>
		<stop  offset="0.8428" style="stop-color:#B57E10"/>
		<stop  offset="0.9493" style="stop-color:#E5C35C"/>
		<stop  offset="1" style="stop-color:#F9DF7B"/>
	</linearGradient>
	<path class="st11" d="M16.5,64.4c0.4-1,0.7-2,1-3c-2,2.5-3.9,5-5.6,7.6c-2.2,3.2-3.6,6.8-4.3,10.7c-0.2,1-0.5,2.3,0,3.1
		c1.2,2.3,2.8,4.4,4.2,6.5c0.2-0.1,0.3-0.1,0.5-0.2c-2-6.4-1.2-12.6,1.6-18.6C14.7,68.5,15.6,66.5,16.5,64.4z"/>
	
		<linearGradient id="SVGID_6_" gradientUnits="userSpaceOnUse" x1="55.227" y1="-1552.9786" x2="73.1629" y2="-1553.9386" gradientTransform="matrix(1 0 0 -1 0 -1478)">
		<stop  offset="0" style="stop-color:#F9DF7B"/>
		<stop  offset="0.2038" style="stop-color:#B57E10"/>
		<stop  offset="0.2643" style="stop-color:#B78114"/>
		<stop  offset="0.3227" style="stop-color:#BF8C1F"/>
		<stop  offset="0.3803" style="stop-color:#CB9E33"/>
		<stop  offset="0.4373" style="stop-color:#DDB64E"/>
		<stop  offset="0.4935" style="stop-color:#F3D671"/>
		<stop  offset="0.5077" style="stop-color:#F9DF7B"/>
		<stop  offset="0.5189" style="stop-color:#FFF3A6"/>
		<stop  offset="0.5934" style="stop-color:#F9DF7B"/>
		<stop  offset="0.8428" style="stop-color:#B57E10"/>
		<stop  offset="0.9493" style="stop-color:#E5C35C"/>
		<stop  offset="1" style="stop-color:#F9DF7B"/>
	</linearGradient>
	<path class="st12" d="M69.1,75.8c-1.6-5.5-5.6-9.6-8.8-14.3c0.2,0.6,0.3,1.2,0.5,1.7c0.8,1.9,1.6,3.9,2.5,5.8
		c2.1,4.6,3.7,9.4,3.2,14.6c-0.2,1.8-0.6,3.7-0.9,5.5c0.1,0.1,0.2,0.1,0.3,0.2c1.3-2,2.8-3.9,4-6c0.4-0.6,0.5-1.5,0.4-2.2
		C70,79.4,69.6,77.6,69.1,75.8z"/>
	
		<linearGradient id="SVGID_7_" gradientUnits="userSpaceOnUse" x1="16.3974" y1="-1566.8438" x2="40.846" y2="-1568.1522" gradientTransform="matrix(1 0 0 -1 0 -1478)">
		<stop  offset="0" style="stop-color:#F9DF7B"/>
		<stop  offset="0.2038" style="stop-color:#B57E10"/>
		<stop  offset="0.2643" style="stop-color:#B78114"/>
		<stop  offset="0.3227" style="stop-color:#BF8C1F"/>
		<stop  offset="0.3803" style="stop-color:#CB9E33"/>
		<stop  offset="0.4373" style="stop-color:#DDB64E"/>
		<stop  offset="0.4935" style="stop-color:#F3D671"/>
		<stop  offset="0.5077" style="stop-color:#F9DF7B"/>
		<stop  offset="0.5189" style="stop-color:#FFF3A6"/>
		<stop  offset="0.5934" style="stop-color:#F9DF7B"/>
		<stop  offset="0.8428" style="stop-color:#B57E10"/>
		<stop  offset="0.9493" style="stop-color:#E5C35C"/>
		<stop  offset="1" style="stop-color:#F9DF7B"/>
	</linearGradient>
	<path class="st13" d="M22.9,78.2c0.2,2,0.4,3.9,0.8,5.8c1.1,6.1,3.7,11.4,7.8,16c0.3,0.4,1.1,0.8,1.5,0.7c1.3-0.5,2.5-1.3,4-2.1
		C29.4,93.5,25.5,86.3,22.9,78.2z"/>
	
		<linearGradient id="SVGID_8_" gradientUnits="userSpaceOnUse" x1="-24.4858" y1="-1515.2888" x2="93.3658" y2="-1521.5963" gradientTransform="matrix(1 0 0 -1 0 -1478)">
		<stop  offset="0" style="stop-color:#F9DF7B"/>
		<stop  offset="0.2038" style="stop-color:#B57E10"/>
		<stop  offset="0.2643" style="stop-color:#B78114"/>
		<stop  offset="0.3227" style="stop-color:#BF8C1F"/>
		<stop  offset="0.3803" style="stop-color:#CB9E33"/>
		<stop  offset="0.4373" style="stop-color:#DDB64E"/>
		<stop  offset="0.4935" style="stop-color:#F3D671"/>
		<stop  offset="0.5077" style="stop-color:#F9DF7B"/>
		<stop  offset="0.5189" style="stop-color:#FFF3A6"/>
		<stop  offset="0.5934" style="stop-color:#F9DF7B"/>
		<stop  offset="0.8428" style="stop-color:#B57E10"/>
		<stop  offset="0.9493" style="stop-color:#E5C35C"/>
		<stop  offset="1" style="stop-color:#F9DF7B"/>
	</linearGradient>
	<path class="st14" d="M71.3,63c-0.2-0.2-0.4-0.3-0.6-0.5c-2.9-2.3-6.1-4.3-8.7-6.9c0-2-0.5-3.9-1.3-5.6c2.1,1.4,4.3,2.8,6.4,4.1
		c3.1,1.9,5.7,4.2,7.3,7.5c0.1,0.1,0.2,0.2,0.5,0.4c-0.2-1.4-0.4-2.6-0.4-3.8c0.1-3.4-2-5.1-4.8-6.3c-0.4-0.2-0.8-0.3-1.3-0.5
		c-2.3-0.9-4.7-1.8-7.1-2.6c-0.4-0.1-0.9-0.1-1.3,0c-1.2-1.8-2.8-3.2-4.6-3.8c-0.4,0.5-0.8,1.1-1.2,1.6c0.2,0.3,0.3,0.5,0.6,0.8
		c-0.8,0-1.3,0-2.1,0c1-1,1.6-2,0.8-2.8c-0.5,0.8-0.9,2-1.5,2.2c-0.8,0.3-1.9-0.2-2.8-0.4c-0.1,0.1-0.1,0.2-0.2,0.3
		c1.8,0.8,3.6,1.7,5.4,2.5c0,0.1-0.1,0.2-0.1,0.3c-2-0.4-3.9-0.9-6-1.4c0.5,0.9,1,1.8,1.6,2.7c-0.1,0.1-0.3,0.3-0.4,0.4
		c-0.7-0.9-1.5-1.8-2.3-2.8c0.3,2.7,0.5,5.2,0.8,7.6c-1-2.6-1.8-5.2-2.6-7.8c-0.4-1.3-0.9-2.5-1.2-3.8c0.5,0.4,1.1,0.5,1.7,0.3
		c1.2-0.5,5-1.3,6.3-1.5c1.4-0.2,2.9-0.4,4.2,0c1.3,0.5,2.2,1.3,3.2,2.2c0-0.7,0-1.7,0-2.8c0.3,0.2,0.6,0.4,1,0.6
		c0.1-0.1,0.2-0.2,0.3-0.3C60.3,42,59.6,41,59,40.1c0.3,0.1,0.6,0.2,1.2,0.3c-1.5-1.8-2.9-3.4-4.2-5c0.1-0.2,0.2-0.3,0.3-0.5
		c1.2,1.9,2.1,1.1,3.1,0.1c0.6-0.6,1.4-1.2,2-1.8c0.1,0.1,0.1,0.1,0.2,0.2c-0.1,0.3-0.3,0.6-0.4,0.9c1.2-0.3,2.3-0.6,3.6-1
		c-0.2,0.4-0.3,0.7-0.4,0.8c0.8,0.4,1.5,0.7,2.4,1.2c-0.4,0.2-0.6,0.3-0.9,0.5c1.4,1.3,0.7,2.5,0.2,4c-0.6,1.8-2.9,1.5-3.3,3.3
		c1.2-0.1,2.2-0.3,2.9-0.6c-0.1,1-0.2,1.8-0.2,2.5c2.2,1.1,4.3,2.1,6.4,3.2c-1.6-2.1-2.1-5.3-5.2-6.2c0.8-0.6,1.2-1.4,1.4-2.7
		c0.2-1.2,0.2-2.5,0.1-3.7c-0.4-3-2.5-4.5-5.6-4c-0.7,0.1-1.4,0.3-2.2,0.3c-0.9,0.1-1.8,0-3.2,0c3-2.3,6-2.1,9.1-1.8
		c-1.4-1.2-2.6-3.1-4.5-2.6c-1.6,0.4-3.1,1.6-4.4,2.4c2.6-6.1,6.3-11.8,11-17.1c-3-0.3-5.9,0.9-8,3.1c-0.5,0.6-0.8,1.1-0.4,1.9
		c0.3,0.8,0.3,1.6,0.5,2.5c-0.8-2.2-2-3.7-4.3-4.1c-1.5-0.2-2.8,0.2-3.7,1.5c-0.9,1.4-0.7,2.8,0.2,4.2c0.1-0.2,0.2-0.3,0.3-0.5
		c0.3-1.1,1.1-1.9,2.2-1.8c0.8,0.1,1.7,0.6,2.2,1.2c0.8,0.9,0.5,2.1-0.2,3c-0.7,0.8-1.5,1.4-2.3,2.1c-0.1,0.1-0.1,0.3-0.2,0.4
		c0.3,0.3,0.6,0.7,1.1,1.2c-0.7-0.1-1-0.2-1.8-0.3c0.7,0.5,1.1,0.8,1.8,1.3c-1.2-0.3-2-0.5-2.9-0.6c0,0,0,0.1,0,0.2
		c0.7,0.3,1.5,0.7,2.2,1C51,28.6,47,28,43.4,25.3c0,1.1,0,1.8,0,2.6c-0.2,0-0.3,0-0.5,0c-0.1-2.1-0.4-4.2-0.2-6.3
		c0.2-1.8,2.5-3.4,4.1-3.2c1.8,0.2,1.9,1.6,1.7,3.1c1.8-1.3,2.3-2.8,1.5-4.4c-0.7-1.6-2.5-2.4-4.3-2c-2.8,0.6-4.1,2.7-5,5.3
		c-0.1-2,0.3-3.8,1.9-5.1c1.5-1.2,1.3-2.3,0.6-3.6c-1.4-2.4-2.9-4.8-4.2-6.9c-0.8,1.3-1.7,2.9-2.6,4.4c-0.7,1.2-1.4,2.4-2,3.7
		c-0.4,0.7-0.2,1.3,0.5,1.9c1.8,1.4,2.4,3.4,2.5,5.6c-0.3-0.5-0.5-1-0.7-1.5c-0.9-2.1-2.4-3.4-4.6-3.8c-1.7-0.3-3.6,0.7-4.1,2.3
		c-0.6,1.6,0.1,3.2,1.3,3.9c0.4-0.8,0.5-2.2,1.2-2.5c0.8-0.4,2.1-0.1,3,0.3c2.9,1.2,2.5,6.6,1.1,8.6c0-0.7,0.1-1.5,0.2-2.5
		c-3.6,2.8-7.5,3.3-11.8,4.1c0.5-0.4,0.8-0.6,1-0.8c-0.3-0.1-0.5-0.2-0.8-0.3c0.4-0.3,0.8-0.6,1.3-1.1c-0.8,0.2-1.2,0.2-1.8,0.3
		c0.4-0.5,0.6-0.8,0.8-1c-1-1.1-2.1-2.1-2.8-3.2c-0.8-1.3-0.1-2.8,1.2-3.4s2.7,0.1,3.2,1.5c0.1,0.2,0.2,0.4,0.3,0.6
		c1.3-2.4,0.8-4.4-1-5.4c-2.4-1.3-4.5-0.1-6.7,3.6c0.1-0.9,0.4-1.8,0.6-2.7c0.1-0.3,0.2-0.8,0-1c-1.6-2.4-6.2-4.6-8.3-3.6
		c4.6,5.2,8.3,11,11.1,17.6c-5.1-4.7-6-4.1-9.2-0.6c6,0,7.1,0.2,9,2.2c-1.8-0.2-3.3-0.3-4.8-0.5c-3.7-0.6-5.7,0.9-6.1,4.6
		c-0.1,0.8-0.1,1.6,0,2.3c0.2,1.6,0.7,2.7,1.6,3.4c-2.1,0.8-4.6,3.7-5.2,6.1c2-1,4.1-2.1,6.3-3.2c-0.1-0.7-0.1-1.6-0.2-2.4
		c0.8,0.3,1.7,0.5,2.8,0.4c-0.4-1.8-3.4-1.4-3-3.9c-0.3,0.3-0.5,0.5-1,0.8c0.3-1.7,0.6-3.1,0.9-4.4c0,0-0.2,0-0.4,0
		c0-0.1,0-0.2,0-0.2c0.8-0.3,1.5-0.7,2.3-1.1c-0.2-0.2-0.3-0.4-0.8-0.8c1.5,0.4,2.6,0.7,3.9,1c-0.2-0.4-0.3-0.7-0.5-1
		c0.8,0.3,1.4,0.8,2,1.3s1.1,1.2,1.7,1.3s1.3-0.5,1.9-0.8c0.1,0,0.1,0.1,0.2,0.1c-1.4,1.6-2.8,3.3-4.2,5c0.5-0.1,0.8-0.1,1-0.1
		c-0.6,0.9-1.1,1.8-1.7,2.8c0.1,0.1,0.2,0.1,0.3,0.2c0.3-0.2,0.6-0.4,0.9-0.5c0,1.1,0,2.2,0,3c0.8-0.9,1.6-0.9,2.5-1.5
		c1.6-1.1,7.4-0.5,8.5-0.1c0.9,0.3,3.2,0.4,4.4-0.4c-1.2,4.2-2.5,8.3-3.7,12.5c-0.1,0-0.1,0-0.2,0c0.2-2.5,0.5-5.1,0.7-7.5
		c-0.9,0.8-1.8,1.7-2.6,2.5c0-0.1-0.1-0.1-0.1-0.2c0.5-0.9,1.1-1.9,1.6-2.8c-2,0.5-3.9,0.9-5.8,1.3c0-0.1,0-0.2-0.1-0.3
		c1.6-0.7,3.1-1.4,4.7-2.1c-0.1-0.1-0.1-0.2-0.2-0.4c-3,0.8-3.8,0.2-3.3-2.4c-1.5,1.2-0.7,2.2,0.2,3.2c-0.8,0-1.4,0-2.2,0
		c0.3-0.4,0.5-0.6,0.7-0.8c-0.5-0.6-0.9-1.1-1.3-1.6c-1.9,0.9-3.4,2.3-4.5,3.8v-0.1c-0.5,0.1-1.1,0-1.6,0.2
		c-1.9,0.7-3.7,1.4-5.5,2.1c-1.6,0.7-3.3,1.3-4.8,2.2c-0.9,0.5-1.9,1.3-2.2,2.1c-0.6,2.2-0.8,4.4-1.2,6.7c1-0.9,1.6-1.9,2.3-2.9
		C7.4,55.7,10.8,54,14,52c1.2-0.8,2.3-1.6,3.5-2.4c-1,1.7-1.5,3.7-1.4,5.7c-2.1,2.1-4.5,3.8-6.9,5.6c-1.6,1.2-3.1,2.6-4.5,4.1
		c-0.7,0.7-1.4,1.8-1.4,2.7c0,2.3,0.4,4.7,0.7,7c0.2,0,0.4,0,0.5,0C5,70,7.5,66.4,10.7,63c1.9-2,3.7-4.2,5.5-6.3c0,0.1,0,0.2,0,0.3
		c0.1-0.2,0.2-0.4,0.2-0.7c0.1-0.1,0.1-0.2,0.2-0.3c0.1-0.2,0.3-0.4,0.4-0.5c1.5,3.1,1.8,3.5,3.2,4c-1.6-2-2.1-4.2-1.1-6.7
		c0,3,0.8,5.7,3.9,6.8c2.3,0.9,3.7-0.9,5-2.6c0.1,0.1,0.2,0.2,0.4,0.4c-0.9,1-1.7,2.2-2.8,3.1c-1.6,1.3-3.3,2.4-4.9,3.5
		c2.6-0.4,5.3-0.8,8-1.2c-1.5,0.7-3,1.1-4.5,1.7c-2.1,0.8-2.2,1.1-1.8,3.2c2.8-0.7,5.6-1.4,8.3-2.1c0,0.1,0,0.1,0,0.2
		c-3.4,1.4-6.8,2.8-10.2,4.3c0,0.1,0.1,0.3,0.2,0.4c0.5-0.1,1-0.2,1.5-0.3c0.2,0.6,0.4,1.2,0.5,1.7c2.4-1.1,4.7-2.1,7-3.1
		c0,0.1,0,0.1,0.1,0.2c-2.6,1.7-5.2,3.5-7.8,5.2c0,0.2,0.1,0.3,0.1,0.5c1.3-1,2-0.1,2.7,0.8c2.6-2.3,3.3-2.6,8.2-4.1
		c4.1-1.2,5.6-3.6,5.1-7.8c-0.2-1.3-0.6-2.4-2.1-2.7c-0.5-0.1-0.8-0.6-1.3-0.9c-0.4-0.3-0.9-0.6-1.3-0.9c-0.3,0.5-0.5,0.9-0.8,1.4
		c-1.1-0.6-1.6-1.5-1.3-2.8c0.2-1.3,1.3-1.8,2.4-1.8c3.8-0.1,7.6-0.1,11.3,0c1.1,0,2,0.5,2.2,1.8c0.1,1.3-0.3,2.2-1.4,2.7
		c-0.3-0.5-0.5-1-0.8-1.4c-0.1-0.1-0.6,0.1-0.8,0.2c-0.9,0.6-1.9,1.2-2.7,1.9c-0.4,0.4-0.8,0.9-1,1.5c-1.2,4.3,0.5,7.3,4.8,8.6
		c3,0.9,6,1.7,8.2,4.3c0.7-1.7,1.9-1.4,3.1-0.7c0-0.1,0.1-0.3,0.1-0.4c-2.7-1.8-5.4-3.6-8.1-5.4c0-0.1,0.1-0.1,0.1-0.2
		c2.3,1,4.6,2,7,3.1c0.2-0.6,0.3-1.2,0.5-1.8c0.7,0.2,1.3,0.4,2,0.7c-0.1-0.3-0.3-0.5-0.5-0.6c-3.4-1.5-6.7-3-10.1-4.4v-0.1
		c2.8,0.7,5.6,1.4,8.4,2.1c0.2-2.4,0.1-2.5-2-3.3c-1.4-0.5-2.9-0.9-4.3-1.4c0-0.1,0-0.2,0-0.2c2.7,0.4,5.4,0.8,7.8,1.2
		c-2.3-2-5.4-3.2-7-6.3c1.4,1.5,2.8,2.8,5,1.9c3.2-1.4,3.8-4.2,3.5-7.7c1.3,3.1,0.8,5.5-0.9,7.8c0.2,0.1,0.3,0.2,0.5,0.2
		c0.9-1.4,1.8-2.8,2.7-4.2c1,1.7,2.1,3.3,3.4,4.7c4,4.5,8.4,8.7,9.2,15.2c0.1,0,0.2,0,0.3,0c0.2-1.2,0.3-2.4,0.7-3.5
		C76.1,68.2,74.4,65.4,71.3,63z M43.8,41c0,0-0.1,0-0.2,0c0-1.3,0.3-2.6,1-3.9c1.1,2.2,2.3,2.4,5.1,1C49.8,38.3,46.9,41.6,43.8,41z
		 M52.2,30.1c1.1,0,1.8,0.6,1.9,1.9c-0.1,1.1-0.7,1.8-1.9,1.8s-1.9-0.7-1.9-1.8C50.3,30.8,51.1,30.1,52.2,30.1z M45.5,29.4
		c1.1,0.2,1.8,0.8,1.8,1.9c0,1.1-0.7,1.8-1.9,1.8c-1.1,0-2.1-0.9-1.9-1.9C43.7,30.1,44.4,29.5,45.5,29.4z M38.9,29.1
		c1-0.1,1.9,0.8,2,1.8c0,0.9-1,2-1.9,1.9c-1-0.1-1.8-0.7-1.8-1.8C37.2,29.9,37.8,29.2,38.9,29.1z M32.5,29.5c1.1,0,1.8,0.6,1.9,1.8
		c-0.1,1.2-0.7,1.9-1.9,1.9c-1.1,0-1.9-0.6-1.9-1.8S31.3,29.5,32.5,29.5z M25.5,33.8c-1-0.1-1.6-0.7-1.7-1.8c0-1,1-2,2-1.9
		c1.2,0.1,1.7,0.9,1.8,2C27.7,33.1,26.8,33.8,25.5,33.8z M29.6,38.9c0,0,3.3-0.8,3.8-1.8c0.6,1.2,0.9,2.3,1,3.5
		C32.4,41,29.6,38.9,29.6,38.9z M41.2,38.4c0.2-0.6,0.3-1.3,0.5-1.9c-0.1-0.1-0.2-0.1-0.3-0.2c-0.5,0.9-1.2,1.8-1.6,2.7
		c-0.4,1-0.5,2.1-0.8,3.2c-0.3-2.1-0.5-4.2-2.6-5.8c0.2,0.9,0.3,1.5,0.5,2.1c-2.1-3.5-5.5-4.3-9.2-4.3c3.5-0.8,7-0.6,10.2,0.9
		c0.8,0.4,1.4,0.4,2.3,0c3.2-1.6,6.7-1.6,10.1-1C46.6,34.3,43.4,35,41.2,38.4z"/>
	
		<linearGradient id="SVGID_9_" gradientUnits="userSpaceOnUse" x1="23.2714" y1="-1566.1116" x2="48.0145" y2="-1567.4359" gradientTransform="matrix(1 0 0 -1 0 -1478)">
		<stop  offset="0" style="stop-color:#F9DF7B"/>
		<stop  offset="0.2038" style="stop-color:#B57E10"/>
		<stop  offset="0.2643" style="stop-color:#B78114"/>
		<stop  offset="0.3227" style="stop-color:#BF8C1F"/>
		<stop  offset="0.3803" style="stop-color:#CB9E33"/>
		<stop  offset="0.4373" style="stop-color:#DDB64E"/>
		<stop  offset="0.4935" style="stop-color:#F3D671"/>
		<stop  offset="0.5077" style="stop-color:#F9DF7B"/>
		<stop  offset="0.5189" style="stop-color:#FFF3A6"/>
		<stop  offset="0.5934" style="stop-color:#F9DF7B"/>
		<stop  offset="0.8428" style="stop-color:#B57E10"/>
		<stop  offset="0.9493" style="stop-color:#E5C35C"/>
		<stop  offset="1" style="stop-color:#F9DF7B"/>
	</linearGradient>
	<path class="st15" d="M40.8,95.7c1.1-0.9,2.2-1.8,3.5-3c-6.1-2.4-10.4-6.7-14.7-10.9C32,87.5,35.3,92.4,40.8,95.7z"/>
	
		<linearGradient id="SVGID_10_" gradientUnits="userSpaceOnUse" x1="37.4968" y1="-1563.5541" x2="51.2622" y2="-1564.2909" gradientTransform="matrix(1 0 0 -1 0 -1478)">
		<stop  offset="0" style="stop-color:#F9DF7B"/>
		<stop  offset="0.2038" style="stop-color:#B57E10"/>
		<stop  offset="0.2643" style="stop-color:#B78114"/>
		<stop  offset="0.3227" style="stop-color:#BF8C1F"/>
		<stop  offset="0.3803" style="stop-color:#CB9E33"/>
		<stop  offset="0.4373" style="stop-color:#DDB64E"/>
		<stop  offset="0.4935" style="stop-color:#F3D671"/>
		<stop  offset="0.5077" style="stop-color:#F9DF7B"/>
		<stop  offset="0.5189" style="stop-color:#FFF3A6"/>
		<stop  offset="0.5934" style="stop-color:#F9DF7B"/>
		<stop  offset="0.8428" style="stop-color:#B57E10"/>
		<stop  offset="0.9493" style="stop-color:#E5C35C"/>
		<stop  offset="1" style="stop-color:#F9DF7B"/>
	</linearGradient>
	<path class="st16" d="M47.4,87.7c0.7-1,1.3-2.1,2-3.2c-3.1-0.9-3.8-0.8-8.6,1.5c2.1,0.8,3.9,1.5,5.7,2.1
		C46.8,88.2,47.2,87.9,47.4,87.7z"/>
</g>
</svg>
